<?xml version="1.0" standalone="no"?>
<!DOCTYPE svg PUBLIC "-//W3C//DTD SVG 20010904//EN"
 "http://www.w3.org/TR/2001/REC-SVG-20010904/DTD/svg10.dtd">
<svg version="1.0" xmlns="http://www.w3.org/2000/svg"
 width="16.000000pt" height="16.000000pt" viewBox="0 0 16.000000 16.000000"
 preserveAspectRatio="xMidYMid meet">
<metadata>
Created by potrace 1.11, written by Peter Selinger 2001-2013
</metadata>
<g transform="translate(0.000000,16.000000) scale(0.003125,-0.003125)"
fill="#000000" stroke="none">
<path d="M1352 4877 c-34 -34 -62 -67 -62 -73 0 -5 91 -101 203 -212 l203
-202 692 0 693 0 174 166 c96 91 190 185 209 208 l35 43 -67 66 -68 67 -975 0
-975 0 -62 -63z"/>
<path d="M3413 4600 l-203 -200 0 -701 0 -700 204 -207 205 -207 70 70 71 69
0 971 0 970 -61 68 c-33 37 -66 67 -72 67 -7 0 -103 -90 -214 -200z"/>
<path d="M1077 4726 l-67 -62 0 -975 0 -976 61 -67 c33 -36 66 -66 73 -66 6 0
103 91 214 203 l202 203 0 695 0 696 -191 197 c-105 108 -199 201 -208 206
-13 7 -32 -5 -84 -54z"/>
<path d="M1413 2656 l-137 -134 31 -38 c17 -22 80 -87 141 -146 l109 -108 805
0 805 0 137 133 c75 72 136 139 136 147 0 8 -58 75 -128 148 l-127 132 -817 0
-817 0 -138 -134z"/>
<path d="M1076 2372 l-66 -68 0 -1054 0 -1055 65 -68 65 -69 118 110 c64 61
159 153 210 205 l92 94 0 779 0 779 -184 191 c-102 105 -196 198 -209 207 -24
15 -25 14 -91 -51z"/>
<path d="M3417 2239 l-208 -204 1 -782 0 -783 204 -207 205 -208 70 70 71 69
0 1054 0 1054 -68 70 -68 70 -207 -203z"/>
</g>
</svg>
